<?xml version="1.0" encoding="utf-8"?>
<!-- Generator: Adobe Illustrator 22.0.0, SVG Export Plug-In . SVG Version: 6.00 Build 0)  -->
<svg version="1.1" id="Capa_1" xmlns="http://www.w3.org/2000/svg" xmlns:xlink="http://www.w3.org/1999/xlink" x="0px" y="0px"
	 viewBox="0 0 1920 850" style="enable-background:new 0 0 1920 850;" xml:space="preserve">
<style type="text/css">
	.st0{fill:#998675;}
	.st1{fill:#736356;}
	.st2{fill:#F0CD82;}
	.st3{fill:#744A22;}
	.st4{fill:#DEE6E9;}
	.st5{fill:#3D5566;}
	.st6{fill:#F3ECDC;}
	.st7{fill:#764C24;}
	.st8{fill:#8F653D;}
	.st9{fill:#A67C54;}
	.st10{fill:#A77E52;}
	.st11{fill:#C49A69;}
	.st12{fill:#734921;}
	.st13{fill:#8A6038;}
	.st14{fill:#724820;}
	.st15{fill:#8C623A;}
	.st16{fill:#7B4C24;}
	.st17{fill:#A07C5C;}
	.st18{fill:#8C623B;}
	.st19{fill:#976831;}
	.st20{fill:#A57A53;}
	.st21{fill:#8B6139;}
	.st22{fill:#735237;}
	.st23{fill:#FDCB64;}
	.st24{fill:#FAB858;}
	.st25{fill:#FECE68;}
	.st26{fill:#A37A52;}
	.st27{fill:#D2A269;}
	.st28{fill:#32637A;}
	.st29{fill:#D1CABA;}
	.st30{fill:#35576A;}
	.st31{fill:#9D8556;}
	.st32{fill:#647D97;}
	.st33{fill:#F9CD81;}
	.st34{fill:#5E8290;}
	.st35{fill:none;}
	.st36{font-family:'FranklinGothic-Heavy';}
	.st37{font-size:36px;}
	.st38{fill:#524642;}
	.st39{font-size:30px;}
</style>
<path class="st0" d="M1049.9,330.9h-27c0,0-4.6,1.1-5.3,4.1c-0.7,3,0,256.3,0,256.3h32.3V330.9z"/>
<path class="st1" d="M1047.4,331h176.2c0,0,6.7,1,6.7,7.2c-0.1,12-0.3,297.9-0.3,297.9h-26c0,0-5.2-35.9-12.5-44.7h-143.9V331
	H1047.4z"/>
<rect x="1017.8" y="580.8" class="st2" width="29.6" height="13"/>
<path class="st3" d="M724.7,331.6c0,0,19.2-12.5,50.5-14.9c0,0,22-1,52,21.3s44.3,17.5,44.3,17.5s18.7-0.7,18-6.6c0,0,0.6-6-5.9-4.9
	s-25.9,0.1-39.5-8.8s-30.3-26.1-38.5-27c0,0-13.4-8.3-33.5-7.5c0,0-30.2,0.5-49.2,9.1c0,0,3.4,5.5,3.4,9.8
	C726.2,324.8,724.7,331.6,724.7,331.6z"/>
<rect y="634.1" class="st4" width="1920" height="215"/>
<path class="st5" d="M1042.9,661.8h127.4c0,0,0.6,6.1-10.5,14.2h-125.5C1034.4,676,1038.2,673.5,1042.9,661.8z"/>
<path class="st6" d="M783.7,600.2v59c0,0,13.7-1,12.4,7.8h191.3c0,0,29.1-31.8,0-66.9H783.7V600.2z"/>
<path class="st4" d="M581.6,711.6"/>
<path class="st7" d="M601.5,701.7c0,0-17.6-1.7-19.2,5.4c-1.4,6.8-3.7,17.6,16.8,16.2c17.1,0.5,230.2,0.2,230.2,0.2
	s8.3-0.6,7.5-11.6c0.2-8.9-5.1-9.8-5.1-9.8"/>
<path class="st8" d="M594.9,701.7c0,0,5.2-2.1,10-10l207.5,0.9c0,0,2.6,6.9,8.3,9.5"/>
<polyline class="st9" points="605,691.7 605,681.5 811.2,681.5 812.5,692.6 "/>
<path class="st10" d="M604.8,681.5c0,0,4.7-10.5,15-10.3l176.3-0.2c0,0,9.5,0.3,14.9,10.5"/>
<path class="st11" d="M633.6,659.8h154.8c0,0,8.3,0,8.6,11.4l-176.3,0.2C622.8,661,633.6,659.8,633.6,659.8z"/>
<path class="st9" d="M682.5,638.7h52.1c0,0,8.9,21,53.3,21H633.2C633.2,659.8,666.5,660.4,682.5,638.7z"/>
<path class="st12" d="M680.6,628.6c0,0-9.4,6.3,1.9,10.2h52.1c0,0,10.7-3.9,2.2-10.2"/>
<path class="st13" d="M685.6,628.6c0,0-6.3-5.5-0.8-8.6h46.1c0,0,6.6-0.5,1.8,8.6H685.6z"/>
<path class="st9" d="M697.3,538.3c0,0-1.3,24.6-3,29c-1.7,4.4-10.6,39.7-1.5,52.7h30.8c0,0,10.4-8.8,0-52.9c0,0-4-20.6-3.2-28.8
	H697.3z"/>
<path class="st14" d="M697.7,538.3h-5.1c0,0-2.6-2.5,0-5.4h32.2c0,0,2.1,2.8,0,5.4H697.7z"/>
<path class="st15" d="M692.5,532.9c0,0-9.9-3.5,0-10h32.4c0,0,9,5.7-0.3,10H692.5z"/>
<path class="st16" d="M692.5,522.9c0,0-3.6-3.8,0-5.1h32.1c0,0,3.4,0.5,0.4,5.1H692.5z"/>
<path class="st17" d="M698,517.7c0,0-0.6-157.4,0-158.3s21.4,0,21.4,0v158.3H698z"/>
<rect x="703.5" y="359.1" class="st18" width="9.9" height="158.7"/>
<path class="st7" d="M698.5,360h-3.9c0,0-1.4-2.8,1.3-3.1c2.7-0.3,25.8,0,25.8,0s3.5,3.3-1.7,3.1C714.7,359.9,698.5,360,698.5,360z"
	/>
<path class="st7" d="M695.9,356.9c0,0-0.9-8.3,0.6-8.3s24.1,0,24.1,0s1.2,4.9,0,8.1L695.9,356.9z"/>
<path class="st19" d="M695.7,355.2h-4.5c0,0-3.5-6.6,5.2-6.6L695.7,355.2z"/>
<path class="st19" d="M721,355.2h4.5c0,0,3.5-6.6-5.2-6.6L721,355.2z"/>
<path class="st20" d="M696.3,348.5c0,0-7.2-11.1-8.6-22c-1.4-10.8,1.3-20.6,1.3-20.6s2.6-8.8,7.9-12h21c0,0,14.1,9,11,33.5
	c0,0-0.1,9.5-8.8,21.1H696.3z"/>
<ellipse class="st21" cx="708.4" cy="321.2" rx="12.3" ry="13.8"/>
<ellipse class="st3" cx="708.4" cy="321.2" rx="6.4" ry="7.4"/>
<polygon class="st22" points="541.7,355 468.7,510.7 472.2,510.7 544.9,355.2 "/>
<polygon class="st22" points="543.7,355 543.7,510.7 547,510.7 546.4,355 "/>
<polygon class="st22" points="545.4,355.3 618.2,510.7 621,510.7 548.1,354.5 "/>
<path class="st3" d="M688.1,328.7c0,0-15.5-9.9-46.9-12.2c0,0-22-1-52,21.3s-44.3,17.5-44.3,17.5s-18.7-0.7-18-6.6
	c0,0-0.6-6,5.9-4.9c6.5,1.1,25.9,0.1,39.5-8.8c13.6-8.9,30.3-26.1,38.5-27c0,0,13.4-8.3,33.5-7.5c0,0,25.3-1.6,44.3,7
	c0,0-1.4,6-1.4,10.3C687.3,322.9,688.1,328.7,688.1,328.7z"/>
<path class="st23" d="M466.6,510.7h161.3c1.2,0,2.3,0.4,3.2,1.3c1.9,1.9,4.4,5.6,0,9.9c-0.9,0.8-2,1.3-3.2,1.3H465.4
	c-4.8,0-13.1-4.3-7.2-11.5C459.1,510.6,465.3,510.7,466.6,510.7z"/>
<path class="st24" d="M466,523.1c0,0-4.6,3.1,0,6.3h158.5c0,0,5.2-1.8,0-6.3H466z"/>
<path class="st25" d="M470.4,529.4c0,0,3.7,25.6,22.6,27.1h106.3c0,0,17.2-3.2,20.2-27.1H470.4z"/>
<path class="st24" d="M792.9,523.3c0,0-4.6,3.1,0,6.3h158.5c0,0,5.2-1.8,0-6.3H792.9z"/>
<path class="st25" d="M797.2,529.6c0,0,3.7,25.6,22.6,27.1h106.3c0,0,17.2-3.2,20.2-27.1H797.2z"/>
<polygon class="st22" points="872.2,355.3 945.1,510.7 947.9,510.7 874.9,354.4 "/>
<polygon class="st22" points="871.1,355.7 871.2,511.4 874.4,511.4 873.8,355.7 "/>
<polygon class="st22" points="868,355 794.9,510.7 798.4,510.7 871.1,355.2 "/>
<path class="st23" d="M793.5,510.9h161.3c1.2,0,2.3,0.4,3.2,1.3c1.9,1.9,4.4,5.6,0,9.9c-0.9,0.8-2,1.3-3.2,1.3H792.3
	c-4.8,0-13.1-4.3-7.2-11.5C786,510.8,792.1,510.9,793.5,510.9z"/>
<path class="st13" d="M693.9,290.3c0,0-4.8,2.1,0,3.6h29c0,0,4.4-1.5,0-3.6H693.9z"/>
<path class="st13" d="M693.9,274c0,0-4.8,2.1,0,3.6h29c0,0,4.4-1.5,0-3.6H693.9z"/>
<path class="st26" d="M693.9,277.6l-1.2,3.1h-4c0,0-1.7,7.9,5.2,7.5v2.2h29v-2.9c0,0,5.8,0.3,3.7-6.7h-3.7v-3.2"/>
<path class="st9" d="M696.6,274c0,0-6.3-17.9-5.3-26.5c0,0,2.5-8.6,8.7-9.5h15.3c0,0,9.1,1.2,9.2,9.5c0,0-1.6,24.3-4.5,26.5H696.6z"
	/>
<path class="st9" d="M713.2,225.1H704c-0.9,0-1.6-0.7-1.6-1.6l0,0c0-0.9,0.7-1.6,1.6-1.6h9.2c0.9,0,1.6,0.7,1.6,1.6l0,0
	C714.8,224.4,714.1,225.1,713.2,225.1z"/>
<path class="st27" d="M704.3,225.1v4c0,0-5.3,4.8,0,8.9h9.3c0,0,4.1-4.6-0.6-8.7v-4.2"/>
<path class="st27" d="M706.4,221.9v-7.8c0,0,0.9-4.9,2.5-4.1c0,0,1.8,1.6,1.9,3.9c0.1,2.3,0,8.1,0,8.1"/>
<path class="st28" d="M776.4,591.3c0,0-8.6,5,0,9.3h210.3c0,0,29.5,28.4,0,66.9H795.4l0.4,3.5c0,0,2.8-1.1,10.2,5.1h191.1
	c0,0,34.4-35.5,2.7-84.8H776.4z"/>
<rect x="783.2" y="612.5" class="st29" width="185.9" height="2.8"/>
<rect x="783.7" y="640.3" class="st29" width="118" height="2.8"/>
<rect x="784.1" y="650" class="st29" width="155.4" height="2.8"/>
<path class="st30" d="M1005.3,661.8h25.1c0,0-2.9,10.8-10.3,14.2h-22.9C997.2,676,998.8,674.7,1005.3,661.8z"/>
<path class="st4" d="M1045.2,667.1"/>
<path class="st31" d="M1030.3,661.8h12.7c0,0-4.3,12.8-8.5,14.2H1020C1020,676,1027.9,671.1,1030.3,661.8z"/>
<path class="st32" d="M1005.2,661.8c0,0,18.4-30.4-5.4-70.5h20.2c0,0,27.4,20,10.3,70.5H1005.2z"/>
<path class="st33" d="M1020,591.3h14c0,0,22.5,13.6,9.1,70.6h-12.8C1030.3,661.8,1042.1,612.4,1020,591.3z"/>
<path class="st34" d="M1034,591.2h127.4c0,0,23.8,15.2,9.4,70.9l-127-0.3C1043.9,661.8,1054.1,603.9,1034,591.2z"/>
<path class="st34" d="M1033,591.2h127.4c0,0,23.8,15.2,9.4,70.9l-127-0.3C1042.9,661.8,1053.1,603.9,1033,591.2z"/>
<path class="st34" d="M1178.4,661.8c0,0,16.1-30.4-4.7-70.5h17.7c0,0,20.7,18.7,9,70.5H1178.4z"/>
<path class="st33" d="M1160,591.2h13.2c0,0,23.3,13.6,9.8,70.5h-12.8C1170.3,661.8,1182.1,612.4,1160,591.2z"/>
<path class="st31" d="M1170.3,661.8h12.7c0,0-4.3,12.8-8.5,14.2H1160C1160,676,1166.9,671.2,1170.3,661.8z"/>
<rect x="1059.5" y="617.1" class="st35" width="106" height="42.4"/>
<text transform="matrix(1 0 0 1 1059.5287 641.0813)" class="st33 st36 st37">L  E  Y</text>
<path class="st5" d="M1183.1,661.8h17.3c0,0-2.6,9.1-8.6,14.2h-17.1C1174.6,676,1178.6,674.9,1183.1,661.8z"/>
<g>
	<path class="st11" d="M1241.7,720.1v34.5c0,0,58.5,16.6,117.5,0v-34.5C1359.2,720.1,1324.9,728.3,1241.7,720.1z"/>
	<ellipse class="st9" cx="1300.5" cy="719.3" rx="58.7" ry="6.7"/>
	<g>
		<path class="st7" d="M1230.6,773.4l11-19.9c0,0,54.6,13.3,117.5,0l8.6,19.9C1367.7,773.4,1307.1,801.4,1230.6,773.4z"/>
		<ellipse class="st12" cx="1299.2" cy="719.3" rx="21.7" ry="3.8"/>
	</g>
</g>
<g>
	<path class="st18" d="M1284.6,634.8l67.4,40.4c0,0,1.9,8.5-8,6.9c0,0,1.5,17.8-2.3,21.4c0,0-13.4,13.7-38.3-8.9l-27.6-18.6
		c0,0-14.8-15,6.6-25.5C1282.4,650.5,1275,637.2,1284.6,634.8z"/>
	<polygon class="st33" points="1301.6,597.1 1284.6,634.8 1352,675.2 1368.4,637.3 	"/>
	<path class="st11" d="M1276.8,654l67.4,40.6l0.1-2.8l-64.7-39.5c-0.3-0.2-0.6-0.1-0.9,0.1L1276.8,654z"/>
	<path class="st11" d="M1281.3,648.1l62.9,37.9l-0.2-3l-64.1-39.1C1279.7,643.8,1281.3,648.1,1281.3,648.1z"/>
	<path class="st11" d="M1280,638.9l70.7,41.8l0.4-0.5l0.4-0.7l0.3-0.9l-70.3-42.4c-0.3,0.2-0.4,0.3-0.8,0.9
		C1280.5,637.7,1280,638.9,1280,638.9z"/>
	<g>
		<path class="st18" d="M1302,598l66.3,39.1c0.5,0.3,1.1,0.3,1.6,0c1.7-0.9,5-3.5,1.7-8.8c-0.5-0.9-0.3-2.1,0.6-2.6
			c4-2.2,13.7-8,14.5-12.2c0,0,4.2-19.1-26.9-29.9c-0.1,0-0.1-0.1-0.2-0.1l-29.1-15.1c-0.1-0.1-0.2-0.1-0.3-0.1
			c-1.9-0.5-18.6-4-17.2,17.4c0.1,1-0.6,1.8-1.5,1.9c-3.6,0.4-11.8,2.1-10.2,9.3C1301.3,597.3,1301.6,597.7,1302,598z"/>
		<path class="st11" d="M1312.9,580.6l67.9,39.7l-2.2,1.6l-65.5-37.9c-0.3-0.2-0.4-0.5-0.4-0.8L1312.9,580.6z"/>
		<path class="st11" d="M1310.4,587.7l63.4,37.1l-2.5,1.4l-64.9-37.6C1306.1,588.6,1310.4,587.7,1310.4,587.7z"/>
		<path class="st11" d="M1302.3,591.3l70.6,42.1l-0.2,0.7l-0.4,0.8l-0.6,0.8l-70.8-41.4c0-0.4,0-0.5,0.3-1.1
			C1301.6,592.4,1302.3,591.3,1302.3,591.3z"/>
	</g>
	<path class="st18" d="M1355.8,666.6l64.2,45.8c0,0,13.4,13.3,22.1,0c0,0,15-16.9-4.6-31.7l-72.9-34.8L1355.8,666.6z"/>
</g>
<rect x="1017.3" y="386.8" class="st2" width="30.3" height="13"/>
<rect x="1056.7" y="330.8" class="st38" width="6" height="260.5"/>
<path class="st38" d="M1213.5,456.1h-133.3c-5.2,0-9.5-4.3-9.5-9.5v-28c0-5.2,4.3-9.5,9.5-9.5h133.3c5.2,0,9.5,4.3,9.5,9.5v28
	C1223,451.8,1218.7,456.1,1213.5,456.1z"/>
<rect x="1087.3" y="423.7" class="st35" width="145.4" height="42.4"/>
<text transform="matrix(1 0 0 1 1087.3494 443.7355)" class="st33 st36 st39">JUSTICIA</text>
</svg>
