<svg width="937" height="978" xmlns="http://www.w3.org/2000/svg" xmlns:xlink="http://www.w3.org/1999/xlink" overflow="hidden"><defs><clipPath id="clip0"><rect x="1928" y="1098" width="937" height="978"/></clipPath></defs><g clip-path="url(#clip0)" transform="translate(-1928 -1098)"><path d="M1928 1254.17C1928 1167.92 1997.92 1098 2084.17 1098L2708.83 1098C2795.08 1098 2865 1167.92 2865 1254.17L2865 1919.83C2865 2006.08 2795.08 2076 2708.83 2076L2084.17 2076C1997.92 2076 1928 2006.08 1928 1919.83Z" fill="#500000" fill-rule="evenodd"/><path d="M2398.3 1342.25C2407.87 1342.25 2415.69 1350.07 2415.69 1359.62 2415.69 1369.18 2407.87 1377 2398.3 1377 2388.74 1377 2380.92 1369.18 2380.92 1359.62 2380.92 1350.07 2388.74 1342.25 2398.3 1342.25ZM2502.64 1863.5C2502.64 1853.94 2494.81 1846.13 2485.25 1846.13L2424.39 1846.13 2424.39 1404.8C2432.21 1400.46 2439.17 1393.51 2443.52 1385.69L2610.45 1385.69 2561.76 1637.63 2597.41 1637.63 2635.66 1439.55 2684.35 1637.63 2720 1637.63 2656.53 1385.69 2667.83 1385.69C2682.61 1385.69 2693.92 1374.39 2693.92 1359.62 2693.92 1344.86 2682.61 1333.56 2667.83 1333.56L2443.52 1333.56C2439.17 1325.74 2432.21 1318.79 2424.39 1314.45L2424.39 1264.06C2424.39 1249.29 2413.08 1238 2398.3 1238 2383.52 1238 2372.22 1249.29 2372.22 1264.06L2372.22 1314.45C2364.4 1318.79 2357.44 1325.74 2353.09 1333.56L2128.78 1333.56C2113.99 1333.56 2102.69 1344.86 2102.69 1359.62 2102.69 1371.79 2111.39 1383.08 2123.56 1384.82L2074 1637.63 2109.65 1637.63 2147.9 1439.55 2197.46 1637.63 2233.11 1637.63 2169.64 1385.69 2352.22 1385.69C2356.57 1393.51 2363.53 1400.46 2371.35 1404.8L2371.35 1846.13 2310.49 1846.13C2300.93 1846.13 2293.1 1853.94 2293.1 1863.5L2293.1 1880.88 2189.64 1880.88 2189.64 1933 2606.97 1933 2606.97 1880.88 2502.64 1880.88 2502.64 1863.5Z" fill="#FFFFFF" fill-rule="evenodd"/><path d="M2259 1663 2051 1663C2051 1691.6 2097.8 1715 2155 1715 2212.2 1715 2259 1691.6 2259 1663Z" fill="#FF0000" fill-rule="evenodd"/><path d="M2537 1663C2537 1691.6 2584.02 1715 2641.5 1715 2698.97 1715 2746 1691.6 2746 1663L2537 1663Z" fill="#FF0000" fill-rule="evenodd"/></g></svg>